<svg width="303" height="360" viewBox="0 0 303 360" fill="none" xmlns="http://www.w3.org/2000/svg">
<path d="M1.67531 27V12.8H4.43531V24.58H11.6753V27H1.67531ZM17.8769 27.2C17.0369 27.2 16.2769 27.06 15.5969 26.78C14.9169 26.4867 14.3369 26.0933 13.8569 25.6C13.3769 25.0933 13.0035 24.52 12.7369 23.88C12.4835 23.2267 12.3569 22.54 12.3569 21.82C12.3569 20.82 12.5769 19.9067 13.0169 19.08C13.4702 18.2533 14.1102 17.5933 14.9369 17.1C15.7769 16.5933 16.7635 16.34 17.8969 16.34C19.0435 16.34 20.0235 16.5933 20.8369 17.1C21.6502 17.5933 22.2702 18.2533 22.6969 19.08C23.1369 19.8933 23.3569 20.7733 23.3569 21.72C23.3569 21.88 23.3502 22.0467 23.3369 22.22C23.3235 22.38 23.3102 22.5133 23.2969 22.62H15.1969C15.2502 23.1533 15.4035 23.62 15.6569 24.02C15.9235 24.42 16.2569 24.7267 16.6569 24.94C17.0702 25.14 17.5102 25.24 17.9769 25.24C18.5102 25.24 19.0102 25.1133 19.4769 24.86C19.9569 24.5933 20.2835 24.2467 20.4569 23.82L22.7569 24.46C22.5035 24.9933 22.1369 25.4667 21.6569 25.88C21.1902 26.2933 20.6369 26.62 19.9969 26.86C19.3569 27.0867 18.6502 27.2 17.8769 27.2ZM15.1369 20.92H20.6169C20.5635 20.3867 20.4102 19.9267 20.1569 19.54C19.9169 19.14 19.5969 18.8333 19.1969 18.62C18.7969 18.3933 18.3502 18.28 17.8569 18.28C17.3769 18.28 16.9369 18.3933 16.5369 18.62C16.1502 18.8333 15.8302 19.14 15.5769 19.54C15.3369 19.9267 15.1902 20.3867 15.1369 20.92ZM29.0895 27.06C28.3962 27.06 27.7562 26.9267 27.1695 26.66C26.5962 26.38 26.0962 25.9933 25.6695 25.5C25.2562 25.0067 24.9362 24.44 24.7095 23.8C24.4829 23.16 24.3695 22.48 24.3695 21.76C24.3695 21 24.4895 20.2933 24.7295 19.64C24.9695 18.9867 25.3029 18.4133 25.7295 17.92C26.1695 17.4133 26.6829 17.0267 27.2695 16.76C27.8695 16.48 28.5295 16.34 29.2495 16.34C30.0629 16.34 30.7762 16.5267 31.3895 16.9C32.0029 17.26 32.5095 17.7467 32.9095 18.36V16.52H35.2495V26.5C35.2495 27.54 34.9962 28.4267 34.4895 29.16C33.9962 29.9067 33.3095 30.4733 32.4295 30.86C31.5495 31.26 30.5495 31.46 29.4295 31.46C28.2962 31.46 27.3362 31.2667 26.5495 30.88C25.7629 30.5067 25.0895 29.9733 24.5295 29.28L25.9895 27.86C26.3895 28.3533 26.8895 28.74 27.4895 29.02C28.1029 29.3 28.7495 29.44 29.4295 29.44C30.0029 29.44 30.5229 29.3333 30.9895 29.12C31.4695 28.92 31.8495 28.6 32.1295 28.16C32.4229 27.7333 32.5695 27.18 32.5695 26.5V25.18C32.2229 25.78 31.7295 26.2467 31.0895 26.58C30.4629 26.9 29.7962 27.06 29.0895 27.06ZM29.9895 24.92C30.2829 24.92 30.5629 24.8733 30.8295 24.78C31.0962 24.6867 31.3429 24.56 31.5695 24.4C31.7962 24.24 31.9962 24.0533 32.1695 23.84C32.3429 23.6133 32.4762 23.3867 32.5695 23.16V20.66C32.4095 20.2467 32.1829 19.8867 31.8895 19.58C31.6095 19.2733 31.2895 19.04 30.9295 18.88C30.5829 18.7067 30.2162 18.62 29.8295 18.62C29.4162 18.62 29.0429 18.7067 28.7095 18.88C28.3762 19.0533 28.0895 19.3 27.8495 19.62C27.6095 19.9267 27.4229 20.2733 27.2895 20.66C27.1695 21.0333 27.1095 21.4267 27.1095 21.84C27.1095 22.2667 27.1829 22.6667 27.3295 23.04C27.4762 23.4133 27.6762 23.74 27.9295 24.02C28.1962 24.3 28.5029 24.52 28.8495 24.68C29.2095 24.84 29.5895 24.92 29.9895 24.92ZM42.5253 27.2C41.6853 27.2 40.9253 27.06 40.2453 26.78C39.5653 26.4867 38.9853 26.0933 38.5053 25.6C38.0253 25.0933 37.652 24.52 37.3853 23.88C37.132 23.2267 37.0053 22.54 37.0053 21.82C37.0053 20.82 37.2253 19.9067 37.6653 19.08C38.1186 18.2533 38.7586 17.5933 39.5853 17.1C40.4253 16.5933 41.412 16.34 42.5453 16.34C43.692 16.34 44.672 16.5933 45.4853 17.1C46.2986 17.5933 46.9186 18.2533 47.3453 19.08C47.7853 19.8933 48.0053 20.7733 48.0053 21.72C48.0053 21.88 47.9986 22.0467 47.9853 22.22C47.972 22.38 47.9586 22.5133 47.9453 22.62H39.8453C39.8986 23.1533 40.052 23.62 40.3053 24.02C40.572 24.42 40.9053 24.7267 41.3053 24.94C41.7186 25.14 42.1586 25.24 42.6253 25.24C43.1586 25.24 43.6586 25.1133 44.1253 24.86C44.6053 24.5933 44.932 24.2467 45.1053 23.82L47.4053 24.46C47.152 24.9933 46.7853 25.4667 46.3053 25.88C45.8386 26.2933 45.2853 26.62 44.6453 26.86C44.0053 27.0867 43.2986 27.2 42.5253 27.2ZM39.7853 20.92H45.2653C45.212 20.3867 45.0586 19.9267 44.8053 19.54C44.5653 19.14 44.2453 18.8333 43.8453 18.62C43.4453 18.3933 42.9986 18.28 42.5053 18.28C42.0253 18.28 41.5853 18.3933 41.1853 18.62C40.7986 18.8333 40.4786 19.14 40.2253 19.54C39.9853 19.9267 39.8386 20.3867 39.7853 20.92ZM59.378 27H56.698V21.12C56.698 20.28 56.5513 19.6667 56.258 19.28C55.9646 18.8933 55.558 18.7 55.038 18.7C54.678 18.7 54.3113 18.7933 53.938 18.98C53.578 19.1667 53.2513 19.4267 52.958 19.76C52.6646 20.08 52.4513 20.4533 52.318 20.88V27H49.638V16.52H52.058V18.46C52.3246 18.0067 52.6646 17.6267 53.078 17.32C53.4913 17 53.9646 16.76 54.498 16.6C55.0446 16.4267 55.618 16.34 56.218 16.34C56.8713 16.34 57.4046 16.46 57.818 16.7C58.2446 16.9267 58.5646 17.24 58.778 17.64C59.0046 18.0267 59.158 18.4667 59.238 18.96C59.3313 19.4533 59.378 19.9533 59.378 20.46V27ZM61.0683 21.76C61.0683 20.7467 61.2683 19.8333 61.6683 19.02C62.0683 18.1933 62.6216 17.54 63.3283 17.06C64.0349 16.58 64.8416 16.34 65.7483 16.34C66.5216 16.34 67.2149 16.5333 67.8283 16.92C68.4549 17.2933 68.9416 17.7733 69.2883 18.36V12.4H71.9683V24C71.9683 24.28 72.0149 24.48 72.1083 24.6C72.2016 24.72 72.3616 24.7933 72.5883 24.82V27C72.1216 27.0933 71.7416 27.14 71.4483 27.14C70.9683 27.14 70.5683 27.02 70.2483 26.78C69.9416 26.54 69.7683 26.2267 69.7283 25.84L69.6883 25.18C69.3016 25.8333 68.7749 26.3333 68.1083 26.68C67.4549 27.0267 66.7683 27.2 66.0483 27.2C65.3283 27.2 64.6616 27.06 64.0483 26.78C63.4483 26.5 62.9216 26.1133 62.4683 25.62C62.0283 25.1267 61.6816 24.5533 61.4283 23.9C61.1883 23.2333 61.0683 22.52 61.0683 21.76ZM69.2883 23.16V20.66C69.1549 20.2733 68.9416 19.9267 68.6483 19.62C68.3549 19.3133 68.0283 19.0733 67.6683 18.9C67.3083 18.7133 66.9483 18.62 66.5883 18.62C66.1749 18.62 65.8016 18.7067 65.4683 18.88C65.1349 19.0533 64.8416 19.2867 64.5883 19.58C64.3483 19.8733 64.1616 20.2133 64.0283 20.6C63.9083 20.9867 63.8483 21.3933 63.8483 21.82C63.8483 22.2467 63.9149 22.6533 64.0483 23.04C64.1949 23.4133 64.4016 23.74 64.6683 24.02C64.9349 24.3 65.2416 24.52 65.5883 24.68C65.9483 24.84 66.3349 24.92 66.7483 24.92C67.0016 24.92 67.2549 24.88 67.5083 24.8C67.7749 24.7067 68.0216 24.5867 68.2483 24.44C68.4883 24.28 68.6949 24.0933 68.8683 23.88C69.0549 23.6533 69.1949 23.4133 69.2883 23.16ZM73.8789 23.9C73.8789 23.22 74.0656 22.6267 74.4389 22.12C74.8256 21.6 75.3589 21.2 76.0389 20.92C76.7189 20.64 77.4989 20.5 78.3789 20.5C78.8189 20.5 79.2656 20.5333 79.7189 20.6C80.1722 20.6667 80.5656 20.7733 80.8989 20.92V20.36C80.8989 19.6933 80.6989 19.18 80.2989 18.82C79.9122 18.46 79.3322 18.28 78.5589 18.28C77.9856 18.28 77.4389 18.38 76.9189 18.58C76.3989 18.78 75.8522 19.0733 75.2789 19.46L74.4189 17.7C75.1122 17.2467 75.8189 16.9067 76.5389 16.68C77.2722 16.4533 78.0389 16.34 78.8389 16.34C80.3322 16.34 81.4922 16.7133 82.3189 17.46C83.1589 18.2067 83.5789 19.2733 83.5789 20.66V24C83.5789 24.28 83.6256 24.48 83.7189 24.6C83.8256 24.72 83.9922 24.7933 84.2189 24.82V27C83.9789 27.04 83.7589 27.0733 83.5589 27.1C83.3722 27.1267 83.2122 27.14 83.0789 27.14C82.5456 27.14 82.1389 27.02 81.8589 26.78C81.5922 26.54 81.4256 26.2467 81.3589 25.9L81.2989 25.36C80.8456 25.9467 80.2789 26.4 79.5989 26.72C78.9189 27.04 78.2256 27.2 77.5189 27.2C76.8256 27.2 76.1989 27.06 75.6389 26.78C75.0922 26.4867 74.6589 26.0933 74.3389 25.6C74.0322 25.0933 73.8789 24.5267 73.8789 23.9ZM80.3989 24.44C80.5456 24.28 80.6656 24.12 80.7589 23.96C80.8522 23.8 80.8989 23.6533 80.8989 23.52V22.46C80.5789 22.3267 80.2322 22.2267 79.8589 22.16C79.4856 22.08 79.1322 22.04 78.7989 22.04C78.1056 22.04 77.5322 22.1933 77.0789 22.5C76.6389 22.7933 76.4189 23.1867 76.4189 23.68C76.4189 23.9467 76.4922 24.2 76.6389 24.44C76.7856 24.68 76.9989 24.8733 77.2789 25.02C77.5589 25.1667 77.8922 25.24 78.2789 25.24C78.6789 25.24 79.0722 25.1667 79.4589 25.02C79.8456 24.86 80.1589 24.6667 80.3989 24.44ZM86.2433 19.52V16.64H88.4233V19.52H86.2433ZM86.2433 27V24.12H88.4233V27H86.2433Z" fill="white"/>
<rect y="68" width="32" height="32" fill="#0E7DF1"/>
<path d="M49.7 91V76.8H55.62C56.2467 76.8 56.82 76.9333 57.34 77.2C57.86 77.4533 58.3133 77.8 58.7 78.24C59.0867 78.6667 59.3867 79.1533 59.6 79.7C59.8133 80.2333 59.92 80.78 59.92 81.34C59.92 82.1133 59.7467 82.8533 59.4 83.56C59.0533 84.2533 58.5667 84.82 57.94 85.26C57.3133 85.6867 56.58 85.9 55.74 85.9H51.5V91H49.7ZM51.5 84.3H55.64C56.1333 84.3 56.56 84.1667 56.92 83.9C57.2933 83.6333 57.58 83.2733 57.78 82.82C57.9933 82.3667 58.1 81.8733 58.1 81.34C58.1 80.78 57.98 80.28 57.74 79.84C57.5 79.3867 57.1867 79.0333 56.8 78.78C56.4133 78.5267 55.9867 78.4 55.52 78.4H51.5V84.3ZM61.8809 91V80.56H63.6409V91H61.8809ZM61.8809 78.6V76.4H63.6409V78.6H61.8809ZM70.0703 91.2C69.2036 91.2 68.3903 91.06 67.6303 90.78C66.8703 90.4867 66.217 90.0533 65.6703 89.48L66.3503 88.24C66.9503 88.8 67.5503 89.2 68.1503 89.44C68.7503 89.68 69.3636 89.8 69.9903 89.8C70.7103 89.8 71.297 89.6667 71.7503 89.4C72.2036 89.12 72.4303 88.7133 72.4303 88.18C72.4303 87.7933 72.3103 87.5067 72.0703 87.32C71.8436 87.1333 71.517 86.98 71.0903 86.86C70.6636 86.7267 70.157 86.58 69.5703 86.42C68.8503 86.2067 68.2436 85.98 67.7503 85.74C67.257 85.5 66.8836 85.2 66.6303 84.84C66.377 84.48 66.2503 84.0267 66.2503 83.48C66.2503 82.8133 66.4236 82.2533 66.7703 81.8C67.117 81.3333 67.5903 80.98 68.1903 80.74C68.8036 80.5 69.497 80.38 70.2703 80.38C71.0436 80.38 71.7436 80.5 72.3703 80.74C72.997 80.98 73.537 81.3333 73.9903 81.8L73.1903 83.02C72.777 82.5933 72.3236 82.28 71.8303 82.08C71.337 81.8667 70.7836 81.76 70.1703 81.76C69.8103 81.76 69.457 81.8067 69.1103 81.9C68.7636 81.98 68.477 82.1333 68.2503 82.36C68.0236 82.5733 67.9103 82.88 67.9103 83.28C67.9103 83.6133 67.997 83.88 68.1703 84.08C68.357 84.2667 68.6236 84.4267 68.9703 84.56C69.3303 84.6933 69.7636 84.84 70.2703 85C71.057 85.2267 71.737 85.4533 72.3103 85.68C72.897 85.9067 73.3503 86.2 73.6703 86.56C73.9903 86.92 74.1503 87.42 74.1503 88.06C74.1503 89.0467 73.777 89.82 73.0303 90.38C72.2836 90.9267 71.297 91.2 70.0703 91.2ZM81.6559 90.48C81.5093 90.5467 81.3093 90.6333 81.0559 90.74C80.8026 90.8467 80.5093 90.94 80.1759 91.02C79.8426 91.1 79.4893 91.14 79.1159 91.14C78.6893 91.14 78.2959 91.0667 77.9359 90.92C77.5759 90.76 77.2893 90.52 77.0759 90.2C76.8626 89.8667 76.7559 89.4533 76.7559 88.96V81.94H75.3359V80.56H76.7559V77.08H78.5159V80.56H80.8559V81.94H78.5159V88.42C78.5426 88.7933 78.6693 89.0733 78.8959 89.26C79.1226 89.4333 79.3893 89.52 79.6959 89.52C80.0426 89.52 80.3626 89.46 80.6559 89.34C80.9493 89.22 81.1426 89.1333 81.2359 89.08L81.6559 90.48ZM82.4672 87.98C82.4672 87.3133 82.6539 86.74 83.0272 86.26C83.4139 85.7667 83.9405 85.3867 84.6072 85.12C85.2739 84.8533 86.0472 84.72 86.9272 84.72C87.3939 84.72 87.8872 84.76 88.4072 84.84C88.9272 84.9067 89.3872 85.0133 89.7872 85.16V84.4C89.7872 83.6 89.5472 82.9733 89.0672 82.52C88.5872 82.0533 87.9072 81.82 87.0272 81.82C86.4539 81.82 85.9005 81.9267 85.3672 82.14C84.8472 82.34 84.2939 82.6333 83.7072 83.02L83.0672 81.78C83.7472 81.3133 84.4272 80.9667 85.1072 80.74C85.7872 80.5 86.4939 80.38 87.2272 80.38C88.5605 80.38 89.6139 80.7533 90.3872 81.5C91.1605 82.2333 91.5472 83.26 91.5472 84.58V89C91.5472 89.2133 91.5872 89.3733 91.6672 89.48C91.7605 89.5733 91.9072 89.6267 92.1072 89.64V91C91.9339 91.0267 91.7805 91.0467 91.6472 91.06C91.5272 91.0733 91.4272 91.08 91.3472 91.08C90.9339 91.08 90.6205 90.9667 90.4072 90.74C90.2072 90.5133 90.0939 90.2733 90.0672 90.02L90.0272 89.36C89.5739 89.9467 88.9805 90.4 88.2472 90.72C87.5139 91.04 86.7872 91.2 86.0672 91.2C85.3739 91.2 84.7539 91.06 84.2072 90.78C83.6605 90.4867 83.2339 90.1 82.9272 89.62C82.6205 89.1267 82.4672 88.58 82.4672 87.98ZM89.2672 88.72C89.4272 88.5333 89.5539 88.3467 89.6472 88.16C89.7405 87.96 89.7872 87.7933 89.7872 87.66V86.36C89.3739 86.2 88.9405 86.08 88.4872 86C88.0339 85.9067 87.5872 85.86 87.1472 85.86C86.2539 85.86 85.5272 86.04 84.9672 86.4C84.4205 86.7467 84.1472 87.2267 84.1472 87.84C84.1472 88.1733 84.2339 88.5 84.4072 88.82C84.5939 89.1267 84.8605 89.38 85.2072 89.58C85.5672 89.78 86.0072 89.88 86.5272 89.88C87.0739 89.88 87.5939 89.7733 88.0872 89.56C88.5805 89.3333 88.9739 89.0533 89.2672 88.72ZM99.7 91V76.8H105.62C106.247 76.8 106.82 76.9333 107.34 77.2C107.86 77.4533 108.313 77.8 108.7 78.24C109.087 78.6667 109.387 79.1533 109.6 79.7C109.813 80.2333 109.92 80.78 109.92 81.34C109.92 82.1133 109.747 82.8533 109.4 83.56C109.053 84.2533 108.567 84.82 107.94 85.26C107.313 85.6867 106.58 85.9 105.74 85.9H101.5V91H99.7ZM101.5 84.3H105.64C106.133 84.3 106.56 84.1667 106.92 83.9C107.293 83.6333 107.58 83.2733 107.78 82.82C107.993 82.3667 108.1 81.8733 108.1 81.34C108.1 80.78 107.98 80.28 107.74 79.84C107.5 79.3867 107.187 79.0333 106.8 78.78C106.413 78.5267 105.987 78.4 105.52 78.4H101.5V84.3ZM117.401 82.1C116.521 82.1133 115.741 82.34 115.061 82.78C114.394 83.2067 113.921 83.8 113.641 84.56V91H111.881V80.56H113.521V82.98C113.881 82.26 114.354 81.68 114.941 81.24C115.541 80.7867 116.168 80.5333 116.821 80.48C116.954 80.48 117.068 80.48 117.161 80.48C117.254 80.48 117.334 80.4867 117.401 80.5V82.1ZM123.513 91.2C122.726 91.2 122.006 91.06 121.353 90.78C120.713 90.4867 120.153 90.0933 119.673 89.6C119.206 89.0933 118.839 88.5133 118.573 87.86C118.319 87.2067 118.193 86.5133 118.193 85.78C118.193 84.7933 118.419 83.8933 118.873 83.08C119.326 82.2667 119.953 81.6133 120.753 81.12C121.566 80.6267 122.493 80.38 123.533 80.38C124.586 80.38 125.499 80.6333 126.273 81.14C127.059 81.6333 127.666 82.2867 128.093 83.1C128.533 83.9 128.753 84.7667 128.753 85.7C128.753 85.8333 128.746 85.9667 128.733 86.1C128.733 86.22 128.726 86.3133 128.713 86.38H120.053C120.106 87.06 120.293 87.6667 120.613 88.2C120.946 88.72 121.373 89.1333 121.893 89.44C122.413 89.7333 122.973 89.88 123.573 89.88C124.213 89.88 124.813 89.72 125.373 89.4C125.946 89.08 126.339 88.66 126.553 88.14L128.073 88.56C127.846 89.0667 127.506 89.52 127.053 89.92C126.613 90.32 126.086 90.6333 125.473 90.86C124.873 91.0867 124.219 91.2 123.513 91.2ZM119.993 85.16H127.113C127.059 84.48 126.866 83.88 126.533 83.36C126.199 82.84 125.773 82.4333 125.253 82.14C124.733 81.8467 124.159 81.7 123.533 81.7C122.919 81.7 122.353 81.8467 121.833 82.14C121.313 82.4333 120.886 82.84 120.553 83.36C120.233 83.88 120.046 84.48 119.993 85.16ZM146.449 91H144.689V85.16C144.689 84.0667 144.509 83.26 144.149 82.74C143.802 82.22 143.282 81.96 142.589 81.96C141.882 81.96 141.242 82.22 140.669 82.74C140.096 83.2467 139.689 83.9067 139.449 84.72V91H137.689V85.16C137.689 84.0533 137.516 83.2467 137.169 82.74C136.822 82.22 136.302 81.96 135.609 81.96C134.916 81.96 134.276 82.2133 133.689 82.72C133.116 83.2133 132.709 83.8733 132.469 84.7V91H130.709V80.56H132.309V82.8C132.736 82.0267 133.289 81.4333 133.969 81.02C134.649 80.5933 135.416 80.38 136.269 80.38C137.136 80.38 137.829 80.62 138.349 81.1C138.869 81.5667 139.189 82.1733 139.309 82.92C139.776 82.0933 140.342 81.4667 141.009 81.04C141.676 80.6 142.436 80.38 143.289 80.38C143.889 80.38 144.389 80.4933 144.789 80.72C145.202 80.9333 145.529 81.24 145.769 81.64C146.009 82.0267 146.182 82.4867 146.289 83.02C146.396 83.5533 146.449 84.1333 146.449 84.76V91ZM149.186 91V80.56H150.946V91H149.186ZM149.186 78.6V76.4H150.946V78.6H149.186ZM153.695 86.82V80.56H155.455V86.48C155.455 87.5467 155.642 88.3467 156.015 88.88C156.388 89.4133 156.942 89.68 157.675 89.68C158.155 89.68 158.615 89.58 159.055 89.38C159.508 89.1667 159.915 88.8667 160.275 88.48C160.635 88.0933 160.915 87.6333 161.115 87.1V80.56H162.875V89C162.875 89.2133 162.915 89.3733 162.995 89.48C163.088 89.5733 163.235 89.6267 163.435 89.64V91C163.235 91.0267 163.075 91.04 162.955 91.04C162.848 91.0533 162.742 91.06 162.635 91.06C162.302 91.06 162.015 90.96 161.775 90.76C161.535 90.5467 161.408 90.2867 161.395 89.98L161.355 88.76C160.902 89.5333 160.288 90.1333 159.515 90.56C158.755 90.9867 157.922 91.2 157.015 91.2C155.922 91.2 155.095 90.8333 154.535 90.1C153.975 89.3533 153.695 88.26 153.695 86.82ZM181.547 91H179.787V85.16C179.787 84.0667 179.607 83.26 179.247 82.74C178.9 82.22 178.38 81.96 177.687 81.96C176.98 81.96 176.34 82.22 175.767 82.74C175.193 83.2467 174.787 83.9067 174.547 84.72V91H172.787V85.16C172.787 84.0533 172.613 83.2467 172.267 82.74C171.92 82.22 171.4 81.96 170.707 81.96C170.013 81.96 169.373 82.2133 168.787 82.72C168.213 83.2133 167.807 83.8733 167.567 84.7V91H165.807V80.56H167.407V82.8C167.833 82.0267 168.387 81.4333 169.067 81.02C169.747 80.5933 170.513 80.38 171.367 80.38C172.233 80.38 172.927 80.62 173.447 81.1C173.967 81.5667 174.287 82.1733 174.407 82.92C174.873 82.0933 175.44 81.4667 176.107 81.04C176.773 80.6 177.533 80.38 178.387 80.38C178.987 80.38 179.487 80.4933 179.887 80.72C180.3 80.9333 180.627 81.24 180.867 81.64C181.107 82.0267 181.28 82.4867 181.387 83.02C181.493 83.5533 181.547 84.1333 181.547 84.76V91Z" fill="white"/>
<rect y="132" width="32" height="32" fill="#FE016E"/>
<path d="M49.7 155V140.8H55.62C56.2467 140.8 56.82 140.933 57.34 141.2C57.86 141.453 58.3133 141.8 58.7 142.24C59.0867 142.667 59.3867 143.153 59.6 143.7C59.8133 144.233 59.92 144.78 59.92 145.34C59.92 146.113 59.7467 146.853 59.4 147.56C59.0533 148.253 58.5667 148.82 57.94 149.26C57.3133 149.687 56.58 149.9 55.74 149.9H51.5V155H49.7ZM51.5 148.3H55.64C56.1333 148.3 56.56 148.167 56.92 147.9C57.2933 147.633 57.58 147.273 57.78 146.82C57.9933 146.367 58.1 145.873 58.1 145.34C58.1 144.78 57.98 144.28 57.74 143.84C57.5 143.387 57.1867 143.033 56.8 142.78C56.4133 142.527 55.9867 142.4 55.52 142.4H51.5V148.3ZM61.8809 155V144.56H63.6409V155H61.8809ZM61.8809 142.6V140.4H63.6409V142.6H61.8809ZM70.0703 155.2C69.2036 155.2 68.3903 155.06 67.6303 154.78C66.8703 154.487 66.217 154.053 65.6703 153.48L66.3503 152.24C66.9503 152.8 67.5503 153.2 68.1503 153.44C68.7503 153.68 69.3636 153.8 69.9903 153.8C70.7103 153.8 71.297 153.667 71.7503 153.4C72.2036 153.12 72.4303 152.713 72.4303 152.18C72.4303 151.793 72.3103 151.507 72.0703 151.32C71.8436 151.133 71.517 150.98 71.0903 150.86C70.6636 150.727 70.157 150.58 69.5703 150.42C68.8503 150.207 68.2436 149.98 67.7503 149.74C67.257 149.5 66.8836 149.2 66.6303 148.84C66.377 148.48 66.2503 148.027 66.2503 147.48C66.2503 146.813 66.4236 146.253 66.7703 145.8C67.117 145.333 67.5903 144.98 68.1903 144.74C68.8036 144.5 69.497 144.38 70.2703 144.38C71.0436 144.38 71.7436 144.5 72.3703 144.74C72.997 144.98 73.537 145.333 73.9903 145.8L73.1903 147.02C72.777 146.593 72.3236 146.28 71.8303 146.08C71.337 145.867 70.7836 145.76 70.1703 145.76C69.8103 145.76 69.457 145.807 69.1103 145.9C68.7636 145.98 68.477 146.133 68.2503 146.36C68.0236 146.573 67.9103 146.88 67.9103 147.28C67.9103 147.613 67.997 147.88 68.1703 148.08C68.357 148.267 68.6236 148.427 68.9703 148.56C69.3303 148.693 69.7636 148.84 70.2703 149C71.057 149.227 71.737 149.453 72.3103 149.68C72.897 149.907 73.3503 150.2 73.6703 150.56C73.9903 150.92 74.1503 151.42 74.1503 152.06C74.1503 153.047 73.777 153.82 73.0303 154.38C72.2836 154.927 71.297 155.2 70.0703 155.2ZM81.6559 154.48C81.5093 154.547 81.3093 154.633 81.0559 154.74C80.8026 154.847 80.5093 154.94 80.1759 155.02C79.8426 155.1 79.4893 155.14 79.1159 155.14C78.6893 155.14 78.2959 155.067 77.9359 154.92C77.5759 154.76 77.2893 154.52 77.0759 154.2C76.8626 153.867 76.7559 153.453 76.7559 152.96V145.94H75.3359V144.56H76.7559V141.08H78.5159V144.56H80.8559V145.94H78.5159V152.42C78.5426 152.793 78.6693 153.073 78.8959 153.26C79.1226 153.433 79.3893 153.52 79.6959 153.52C80.0426 153.52 80.3626 153.46 80.6559 153.34C80.9493 153.22 81.1426 153.133 81.2359 153.08L81.6559 154.48ZM82.4672 151.98C82.4672 151.313 82.6539 150.74 83.0272 150.26C83.4139 149.767 83.9405 149.387 84.6072 149.12C85.2739 148.853 86.0472 148.72 86.9272 148.72C87.3939 148.72 87.8872 148.76 88.4072 148.84C88.9272 148.907 89.3872 149.013 89.7872 149.16V148.4C89.7872 147.6 89.5472 146.973 89.0672 146.52C88.5872 146.053 87.9072 145.82 87.0272 145.82C86.4539 145.82 85.9005 145.927 85.3672 146.14C84.8472 146.34 84.2939 146.633 83.7072 147.02L83.0672 145.78C83.7472 145.313 84.4272 144.967 85.1072 144.74C85.7872 144.5 86.4939 144.38 87.2272 144.38C88.5605 144.38 89.6139 144.753 90.3872 145.5C91.1605 146.233 91.5472 147.26 91.5472 148.58V153C91.5472 153.213 91.5872 153.373 91.6672 153.48C91.7605 153.573 91.9072 153.627 92.1072 153.64V155C91.9339 155.027 91.7805 155.047 91.6472 155.06C91.5272 155.073 91.4272 155.08 91.3472 155.08C90.9339 155.08 90.6205 154.967 90.4072 154.74C90.2072 154.513 90.0939 154.273 90.0672 154.02L90.0272 153.36C89.5739 153.947 88.9805 154.4 88.2472 154.72C87.5139 155.04 86.7872 155.2 86.0672 155.2C85.3739 155.2 84.7539 155.06 84.2072 154.78C83.6605 154.487 83.2339 154.1 82.9272 153.62C82.6205 153.127 82.4672 152.58 82.4672 151.98ZM89.2672 152.72C89.4272 152.533 89.5539 152.347 89.6472 152.16C89.7405 151.96 89.7872 151.793 89.7872 151.66V150.36C89.3739 150.2 88.9405 150.08 88.4872 150C88.0339 149.907 87.5872 149.86 87.1472 149.86C86.2539 149.86 85.5272 150.04 84.9672 150.4C84.4205 150.747 84.1472 151.227 84.1472 151.84C84.1472 152.173 84.2339 152.5 84.4072 152.82C84.5939 153.127 84.8605 153.38 85.2072 153.58C85.5672 153.78 86.0072 153.88 86.5272 153.88C87.0739 153.88 87.5939 153.773 88.0872 153.56C88.5805 153.333 88.9739 153.053 89.2672 152.72ZM98.78 147.8C98.78 146.933 98.9267 146.087 99.22 145.26C99.5267 144.42 99.9667 143.66 100.54 142.98C101.127 142.287 101.84 141.74 102.68 141.34C103.52 140.927 104.473 140.72 105.54 140.72C106.807 140.72 107.893 141.013 108.8 141.6C109.707 142.173 110.38 142.913 110.82 143.82L109.4 144.74C109.12 144.14 108.76 143.667 108.32 143.32C107.893 142.96 107.427 142.707 106.92 142.56C106.427 142.413 105.94 142.34 105.46 142.34C104.673 142.34 103.973 142.5 103.36 142.82C102.76 143.14 102.253 143.567 101.84 144.1C101.427 144.633 101.113 145.233 100.9 145.9C100.7 146.553 100.6 147.213 100.6 147.88C100.6 148.613 100.72 149.32 100.96 150C101.213 150.68 101.56 151.28 102 151.8C102.44 152.32 102.96 152.733 103.56 153.04C104.16 153.347 104.813 153.5 105.52 153.5C106.013 153.5 106.52 153.413 107.04 153.24C107.56 153.067 108.047 152.8 108.5 152.44C108.953 152.067 109.313 151.587 109.58 151L111.08 151.82C110.787 152.527 110.333 153.127 109.72 153.62C109.107 154.113 108.42 154.487 107.66 154.74C106.913 154.993 106.173 155.12 105.44 155.12C104.467 155.12 103.573 154.913 102.76 154.5C101.947 154.073 101.24 153.513 100.64 152.82C100.053 152.113 99.5933 151.327 99.26 150.46C98.94 149.58 98.78 148.693 98.78 147.8ZM117.613 155.2C116.826 155.2 116.113 155.06 115.473 154.78C114.833 154.487 114.279 154.093 113.813 153.6C113.346 153.093 112.986 152.513 112.733 151.86C112.479 151.207 112.353 150.52 112.353 149.8C112.353 149.067 112.479 148.373 112.733 147.72C112.986 147.067 113.346 146.493 113.813 146C114.279 145.493 114.833 145.1 115.473 144.82C116.126 144.527 116.839 144.38 117.613 144.38C118.399 144.38 119.113 144.527 119.753 144.82C120.393 145.1 120.946 145.493 121.413 146C121.893 146.493 122.259 147.067 122.513 147.72C122.766 148.373 122.893 149.067 122.893 149.8C122.893 150.52 122.766 151.207 122.513 151.86C122.259 152.513 121.899 153.093 121.433 153.6C120.966 154.093 120.406 154.487 119.753 154.78C119.113 155.06 118.399 155.2 117.613 155.2ZM114.153 149.82C114.153 150.54 114.306 151.193 114.613 151.78C114.933 152.367 115.353 152.833 115.873 153.18C116.393 153.513 116.973 153.68 117.613 153.68C118.253 153.68 118.833 153.507 119.353 153.16C119.886 152.813 120.306 152.347 120.613 151.76C120.933 151.16 121.093 150.5 121.093 149.78C121.093 149.06 120.933 148.407 120.613 147.82C120.306 147.233 119.886 146.767 119.353 146.42C118.833 146.073 118.253 145.9 117.613 145.9C116.973 145.9 116.393 146.08 115.873 146.44C115.353 146.787 114.933 147.253 114.613 147.84C114.306 148.427 114.153 149.087 114.153 149.82ZM140.765 155H139.005V149.16C139.005 148.067 138.825 147.26 138.465 146.74C138.119 146.22 137.599 145.96 136.905 145.96C136.199 145.96 135.559 146.22 134.985 146.74C134.412 147.247 134.005 147.907 133.765 148.72V155H132.005V149.16C132.005 148.053 131.832 147.247 131.485 146.74C131.139 146.22 130.619 145.96 129.925 145.96C129.232 145.96 128.592 146.213 128.005 146.72C127.432 147.213 127.025 147.873 126.785 148.7V155H125.025V144.56H126.625V146.8C127.052 146.027 127.605 145.433 128.285 145.02C128.965 144.593 129.732 144.38 130.585 144.38C131.452 144.38 132.145 144.62 132.665 145.1C133.185 145.567 133.505 146.173 133.625 146.92C134.092 146.093 134.659 145.467 135.325 145.04C135.992 144.6 136.752 144.38 137.605 144.38C138.205 144.38 138.705 144.493 139.105 144.72C139.519 144.933 139.845 145.24 140.085 145.64C140.325 146.027 140.499 146.487 140.605 147.02C140.712 147.553 140.765 148.133 140.765 148.76V155ZM143.402 150.82V144.56H145.162V150.48C145.162 151.547 145.349 152.347 145.722 152.88C146.095 153.413 146.649 153.68 147.382 153.68C147.862 153.68 148.322 153.58 148.762 153.38C149.215 153.167 149.622 152.867 149.982 152.48C150.342 152.093 150.622 151.633 150.822 151.1V144.56H152.582V153C152.582 153.213 152.622 153.373 152.702 153.48C152.795 153.573 152.942 153.627 153.142 153.64V155C152.942 155.027 152.782 155.04 152.662 155.04C152.555 155.053 152.449 155.06 152.342 155.06C152.009 155.06 151.722 154.96 151.482 154.76C151.242 154.547 151.115 154.287 151.102 153.98L151.062 152.76C150.609 153.533 149.995 154.133 149.222 154.56C148.462 154.987 147.629 155.2 146.722 155.2C145.629 155.2 144.802 154.833 144.242 154.1C143.682 153.353 143.402 152.26 143.402 150.82ZM171.254 155H169.494V149.16C169.494 148.067 169.314 147.26 168.954 146.74C168.607 146.22 168.087 145.96 167.394 145.96C166.687 145.96 166.047 146.22 165.474 146.74C164.9 147.247 164.494 147.907 164.254 148.72V155H162.494V149.16C162.494 148.053 162.32 147.247 161.974 146.74C161.627 146.22 161.107 145.96 160.414 145.96C159.72 145.96 159.08 146.213 158.494 146.72C157.92 147.213 157.514 147.873 157.274 148.7V155H155.514V144.56H157.114V146.8C157.54 146.027 158.094 145.433 158.774 145.02C159.454 144.593 160.22 144.38 161.074 144.38C161.94 144.38 162.634 144.62 163.154 145.1C163.674 145.567 163.994 146.173 164.114 146.92C164.58 146.093 165.147 145.467 165.814 145.04C166.48 144.6 167.24 144.38 168.094 144.38C168.694 144.38 169.194 144.493 169.594 144.72C170.007 144.933 170.334 145.24 170.574 145.64C170.814 146.027 170.987 146.487 171.094 147.02C171.2 147.553 171.254 148.133 171.254 148.76V155Z" fill="white"/>
<rect y="196" width="32" height="32" fill="#01A89E"/>
<path d="M48.78 211.8C48.78 210.933 48.9267 210.087 49.22 209.26C49.5267 208.42 49.9667 207.66 50.54 206.98C51.1267 206.287 51.84 205.74 52.68 205.34C53.52 204.927 54.4733 204.72 55.54 204.72C56.8067 204.72 57.8933 205.013 58.8 205.6C59.7067 206.173 60.38 206.913 60.82 207.82L59.4 208.74C59.12 208.14 58.76 207.667 58.32 207.32C57.8933 206.96 57.4267 206.707 56.92 206.56C56.4267 206.413 55.94 206.34 55.46 206.34C54.6733 206.34 53.9733 206.5 53.36 206.82C52.76 207.14 52.2533 207.567 51.84 208.1C51.4267 208.633 51.1133 209.233 50.9 209.9C50.7 210.553 50.6 211.213 50.6 211.88C50.6 212.613 50.72 213.32 50.96 214C51.2133 214.68 51.56 215.28 52 215.8C52.44 216.32 52.96 216.733 53.56 217.04C54.16 217.347 54.8133 217.5 55.52 217.5C56.0133 217.5 56.52 217.413 57.04 217.24C57.56 217.067 58.0467 216.8 58.5 216.44C58.9533 216.067 59.3133 215.587 59.58 215L61.08 215.82C60.7867 216.527 60.3333 217.127 59.72 217.62C59.1067 218.113 58.42 218.487 57.66 218.74C56.9133 218.993 56.1733 219.12 55.44 219.12C54.4667 219.12 53.5733 218.913 52.76 218.5C51.9467 218.073 51.24 217.513 50.64 216.82C50.0533 216.113 49.5933 215.327 49.26 214.46C48.94 213.58 48.78 212.693 48.78 211.8ZM62.2328 215.98C62.2328 215.313 62.4195 214.74 62.7928 214.26C63.1795 213.767 63.7061 213.387 64.3728 213.12C65.0395 212.853 65.8128 212.72 66.6928 212.72C67.1595 212.72 67.6528 212.76 68.1728 212.84C68.6928 212.907 69.1528 213.013 69.5528 213.16V212.4C69.5528 211.6 69.3128 210.973 68.8328 210.52C68.3528 210.053 67.6728 209.82 66.7928 209.82C66.2195 209.82 65.6661 209.927 65.1328 210.14C64.6128 210.34 64.0595 210.633 63.4728 211.02L62.8328 209.78C63.5128 209.313 64.1928 208.967 64.8728 208.74C65.5528 208.5 66.2595 208.38 66.9928 208.38C68.3261 208.38 69.3795 208.753 70.1528 209.5C70.9261 210.233 71.3128 211.26 71.3128 212.58V217C71.3128 217.213 71.3528 217.373 71.4328 217.48C71.5261 217.573 71.6728 217.627 71.8728 217.64V219C71.6995 219.027 71.5461 219.047 71.4128 219.06C71.2928 219.073 71.1928 219.08 71.1128 219.08C70.6995 219.08 70.3861 218.967 70.1728 218.74C69.9728 218.513 69.8595 218.273 69.8328 218.02L69.7928 217.36C69.3395 217.947 68.7461 218.4 68.0128 218.72C67.2795 219.04 66.5528 219.2 65.8328 219.2C65.1395 219.2 64.5195 219.06 63.9728 218.78C63.4261 218.487 62.9995 218.1 62.6928 217.62C62.3861 217.127 62.2328 216.58 62.2328 215.98ZM69.0328 216.72C69.1928 216.533 69.3195 216.347 69.4128 216.16C69.5061 215.96 69.5528 215.793 69.5528 215.66V214.36C69.1395 214.2 68.7061 214.08 68.2528 214C67.7995 213.907 67.3528 213.86 66.9128 213.86C66.0195 213.86 65.2928 214.04 64.7328 214.4C64.1861 214.747 63.9128 215.227 63.9128 215.84C63.9128 216.173 63.9995 216.5 64.1728 216.82C64.3595 217.127 64.6261 217.38 64.9728 217.58C65.3328 217.78 65.7728 217.88 66.2928 217.88C66.8395 217.88 67.3595 217.773 67.8528 217.56C68.3461 217.333 68.7395 217.053 69.0328 216.72ZM73.447 213.8C73.447 212.813 73.647 211.913 74.047 211.1C74.4604 210.273 75.0204 209.613 75.727 209.12C76.447 208.627 77.267 208.38 78.187 208.38C79.027 208.38 79.7804 208.6 80.447 209.04C81.1137 209.48 81.6337 210.013 82.007 210.64V204.4H83.767V217C83.767 217.213 83.807 217.373 83.887 217.48C83.9804 217.573 84.127 217.627 84.327 217.64V219C83.9937 219.053 83.7337 219.08 83.547 219.08C83.2004 219.08 82.8937 218.96 82.627 218.72C82.3737 218.48 82.247 218.213 82.247 217.92V217.04C81.8337 217.707 81.2804 218.233 80.587 218.62C79.8937 219.007 79.1737 219.2 78.427 219.2C77.707 219.2 77.0404 219.06 76.427 218.78C75.827 218.487 75.3004 218.087 74.847 217.58C74.407 217.073 74.0604 216.5 73.807 215.86C73.567 215.207 73.447 214.52 73.447 213.8ZM82.007 215.34V212.34C81.847 211.887 81.587 211.48 81.227 211.12C80.867 210.747 80.4604 210.453 80.007 210.24C79.567 210.013 79.127 209.9 78.687 209.9C78.167 209.9 77.6937 210.013 77.267 210.24C76.8537 210.453 76.4937 210.747 76.187 211.12C75.8937 211.48 75.667 211.893 75.507 212.36C75.347 212.827 75.267 213.313 75.267 213.82C75.267 214.34 75.3537 214.833 75.527 215.3C75.7137 215.767 75.967 216.18 76.287 216.54C76.6204 216.9 77.0004 217.18 77.427 217.38C77.867 217.58 78.3404 217.68 78.847 217.68C79.167 217.68 79.4937 217.62 79.827 217.5C80.1737 217.38 80.5004 217.213 80.807 217C81.1137 216.787 81.3737 216.54 81.587 216.26C81.8004 215.967 81.9404 215.66 82.007 215.34ZM91.3252 219.2C90.5385 219.2 89.8185 219.06 89.1652 218.78C88.5252 218.487 87.9652 218.093 87.4852 217.6C87.0185 217.093 86.6518 216.513 86.3852 215.86C86.1318 215.207 86.0052 214.513 86.0052 213.78C86.0052 212.793 86.2318 211.893 86.6852 211.08C87.1385 210.267 87.7652 209.613 88.5652 209.12C89.3785 208.627 90.3052 208.38 91.3452 208.38C92.3985 208.38 93.3118 208.633 94.0852 209.14C94.8718 209.633 95.4785 210.287 95.9052 211.1C96.3452 211.9 96.5652 212.767 96.5652 213.7C96.5652 213.833 96.5585 213.967 96.5452 214.1C96.5452 214.22 96.5385 214.313 96.5252 214.38H87.8652C87.9185 215.06 88.1052 215.667 88.4252 216.2C88.7585 216.72 89.1852 217.133 89.7052 217.44C90.2252 217.733 90.7852 217.88 91.3852 217.88C92.0252 217.88 92.6252 217.72 93.1852 217.4C93.7585 217.08 94.1518 216.66 94.3652 216.14L95.8852 216.56C95.6585 217.067 95.3185 217.52 94.8652 217.92C94.4252 218.32 93.8985 218.633 93.2852 218.86C92.6852 219.087 92.0318 219.2 91.3252 219.2ZM87.8052 213.16H94.9252C94.8718 212.48 94.6785 211.88 94.3452 211.36C94.0118 210.84 93.5852 210.433 93.0652 210.14C92.5452 209.847 91.9718 209.7 91.3452 209.7C90.7318 209.7 90.1652 209.847 89.6452 210.14C89.1252 210.433 88.6985 210.84 88.3652 211.36C88.0452 211.88 87.8585 212.48 87.8052 213.16ZM98.5216 219V208.56H100.282V219H98.5216ZM98.5216 206.6V204.4H100.282V206.6H98.5216ZM108.651 210.1C107.771 210.113 106.991 210.34 106.311 210.78C105.644 211.207 105.171 211.8 104.891 212.56V219H103.131V208.56H104.771V210.98C105.131 210.26 105.604 209.68 106.191 209.24C106.791 208.787 107.418 208.533 108.071 208.48C108.204 208.48 108.318 208.48 108.411 208.48C108.504 208.48 108.584 208.487 108.651 208.5V210.1ZM109.577 215.98C109.577 215.313 109.763 214.74 110.137 214.26C110.523 213.767 111.05 213.387 111.717 213.12C112.383 212.853 113.157 212.72 114.037 212.72C114.503 212.72 114.997 212.76 115.517 212.84C116.037 212.907 116.497 213.013 116.897 213.16V212.4C116.897 211.6 116.657 210.973 116.177 210.52C115.697 210.053 115.017 209.82 114.137 209.82C113.563 209.82 113.01 209.927 112.477 210.14C111.957 210.34 111.403 210.633 110.817 211.02L110.177 209.78C110.857 209.313 111.537 208.967 112.217 208.74C112.897 208.5 113.603 208.38 114.337 208.38C115.67 208.38 116.723 208.753 117.497 209.5C118.27 210.233 118.657 211.26 118.657 212.58V217C118.657 217.213 118.697 217.373 118.777 217.48C118.87 217.573 119.017 217.627 119.217 217.64V219C119.043 219.027 118.89 219.047 118.757 219.06C118.637 219.073 118.537 219.08 118.457 219.08C118.043 219.08 117.73 218.967 117.517 218.74C117.317 218.513 117.203 218.273 117.177 218.02L117.137 217.36C116.683 217.947 116.09 218.4 115.357 218.72C114.623 219.04 113.897 219.2 113.177 219.2C112.483 219.2 111.863 219.06 111.317 218.78C110.77 218.487 110.343 218.1 110.037 217.62C109.73 217.127 109.577 216.58 109.577 215.98ZM116.377 216.72C116.537 216.533 116.663 216.347 116.757 216.16C116.85 215.96 116.897 215.793 116.897 215.66V214.36C116.483 214.2 116.05 214.08 115.597 214C115.143 213.907 114.697 213.86 114.257 213.86C113.363 213.86 112.637 214.04 112.077 214.4C111.53 214.747 111.257 215.227 111.257 215.84C111.257 216.173 111.343 216.5 111.517 216.82C111.703 217.127 111.97 217.38 112.317 217.58C112.677 217.78 113.117 217.88 113.637 217.88C114.183 217.88 114.703 217.773 115.197 217.56C115.69 217.333 116.083 217.053 116.377 216.72ZM125.051 219.2C124.184 219.2 123.371 219.06 122.611 218.78C121.851 218.487 121.197 218.053 120.651 217.48L121.331 216.24C121.931 216.8 122.531 217.2 123.131 217.44C123.731 217.68 124.344 217.8 124.971 217.8C125.691 217.8 126.277 217.667 126.731 217.4C127.184 217.12 127.411 216.713 127.411 216.18C127.411 215.793 127.291 215.507 127.051 215.32C126.824 215.133 126.497 214.98 126.071 214.86C125.644 214.727 125.137 214.58 124.551 214.42C123.831 214.207 123.224 213.98 122.731 213.74C122.237 213.5 121.864 213.2 121.611 212.84C121.357 212.48 121.231 212.027 121.231 211.48C121.231 210.813 121.404 210.253 121.751 209.8C122.097 209.333 122.571 208.98 123.171 208.74C123.784 208.5 124.477 208.38 125.251 208.38C126.024 208.38 126.724 208.5 127.351 208.74C127.977 208.98 128.517 209.333 128.971 209.8L128.171 211.02C127.757 210.593 127.304 210.28 126.811 210.08C126.317 209.867 125.764 209.76 125.151 209.76C124.791 209.76 124.437 209.807 124.091 209.9C123.744 209.98 123.457 210.133 123.231 210.36C123.004 210.573 122.891 210.88 122.891 211.28C122.891 211.613 122.977 211.88 123.151 212.08C123.337 212.267 123.604 212.427 123.951 212.56C124.311 212.693 124.744 212.84 125.251 213C126.037 213.227 126.717 213.453 127.291 213.68C127.877 213.907 128.331 214.2 128.651 214.56C128.971 214.92 129.131 215.42 129.131 216.06C129.131 217.047 128.757 217.82 128.011 218.38C127.264 218.927 126.277 219.2 125.051 219.2ZM141.695 218.48C141.548 218.547 141.348 218.633 141.095 218.74C140.842 218.847 140.548 218.94 140.215 219.02C139.882 219.1 139.528 219.14 139.155 219.14C138.728 219.14 138.335 219.067 137.975 218.92C137.615 218.76 137.328 218.52 137.115 218.2C136.902 217.867 136.795 217.453 136.795 216.96V209.94H135.375V208.56H136.795V205.08H138.555V208.56H140.895V209.94H138.555V216.42C138.582 216.793 138.708 217.073 138.935 217.26C139.162 217.433 139.428 217.52 139.735 217.52C140.082 217.52 140.402 217.46 140.695 217.34C140.988 217.22 141.182 217.133 141.275 217.08L141.695 218.48ZM147.81 219.2C147.023 219.2 146.303 219.06 145.65 218.78C145.01 218.487 144.45 218.093 143.97 217.6C143.503 217.093 143.136 216.513 142.87 215.86C142.616 215.207 142.49 214.513 142.49 213.78C142.49 212.793 142.716 211.893 143.17 211.08C143.623 210.267 144.25 209.613 145.05 209.12C145.863 208.627 146.79 208.38 147.83 208.38C148.883 208.38 149.796 208.633 150.57 209.14C151.356 209.633 151.963 210.287 152.39 211.1C152.83 211.9 153.05 212.767 153.05 213.7C153.05 213.833 153.043 213.967 153.03 214.1C153.03 214.22 153.023 214.313 153.01 214.38H144.35C144.403 215.06 144.59 215.667 144.91 216.2C145.243 216.72 145.67 217.133 146.19 217.44C146.71 217.733 147.27 217.88 147.87 217.88C148.51 217.88 149.11 217.72 149.67 217.4C150.243 217.08 150.636 216.66 150.85 216.14L152.37 216.56C152.143 217.067 151.803 217.52 151.35 217.92C150.91 218.32 150.383 218.633 149.77 218.86C149.17 219.087 148.516 219.2 147.81 219.2ZM144.29 213.16H151.41C151.356 212.48 151.163 211.88 150.83 211.36C150.496 210.84 150.07 210.433 149.55 210.14C149.03 209.847 148.456 209.7 147.83 209.7C147.216 209.7 146.65 209.847 146.13 210.14C145.61 210.433 145.183 210.84 144.85 211.36C144.53 211.88 144.343 212.48 144.29 213.16ZM148.37 206.82L147.21 206.42L148.37 204.4H150.13L148.37 206.82ZM160.526 210.1C159.646 210.113 158.866 210.34 158.186 210.78C157.519 211.207 157.046 211.8 156.766 212.56V219H155.006V208.56H156.646V210.98C157.006 210.26 157.479 209.68 158.066 209.24C158.666 208.787 159.293 208.533 159.946 208.48C160.079 208.48 160.193 208.48 160.286 208.48C160.379 208.48 160.459 208.487 160.526 208.5V210.1ZM167.792 210.1C166.912 210.113 166.132 210.34 165.452 210.78C164.785 211.207 164.312 211.8 164.032 212.56V219H162.272V208.56H163.912V210.98C164.272 210.26 164.745 209.68 165.332 209.24C165.932 208.787 166.558 208.533 167.212 208.48C167.345 208.48 167.458 208.48 167.552 208.48C167.645 208.48 167.725 208.487 167.792 208.5V210.1ZM173.903 219.2C173.117 219.2 172.397 219.06 171.743 218.78C171.103 218.487 170.543 218.093 170.063 217.6C169.597 217.093 169.23 216.513 168.963 215.86C168.71 215.207 168.583 214.513 168.583 213.78C168.583 212.793 168.81 211.893 169.263 211.08C169.717 210.267 170.343 209.613 171.143 209.12C171.957 208.627 172.883 208.38 173.923 208.38C174.977 208.38 175.89 208.633 176.663 209.14C177.45 209.633 178.057 210.287 178.483 211.1C178.923 211.9 179.143 212.767 179.143 213.7C179.143 213.833 179.137 213.967 179.123 214.1C179.123 214.22 179.117 214.313 179.103 214.38H170.443C170.497 215.06 170.683 215.667 171.003 216.2C171.337 216.72 171.763 217.133 172.283 217.44C172.803 217.733 173.363 217.88 173.963 217.88C174.603 217.88 175.203 217.72 175.763 217.4C176.337 217.08 176.73 216.66 176.943 216.14L178.463 216.56C178.237 217.067 177.897 217.52 177.443 217.92C177.003 218.32 176.477 218.633 175.863 218.86C175.263 219.087 174.61 219.2 173.903 219.2ZM170.383 213.16H177.503C177.45 212.48 177.257 211.88 176.923 211.36C176.59 210.84 176.163 210.433 175.643 210.14C175.123 209.847 174.55 209.7 173.923 209.7C173.31 209.7 172.743 209.847 172.223 210.14C171.703 210.433 171.277 210.84 170.943 211.36C170.623 211.88 170.437 212.48 170.383 213.16ZM185.66 219.2C184.873 219.2 184.16 219.06 183.52 218.78C182.88 218.487 182.326 218.093 181.86 217.6C181.393 217.093 181.033 216.513 180.78 215.86C180.526 215.207 180.4 214.52 180.4 213.8C180.4 213.067 180.526 212.373 180.78 211.72C181.033 211.067 181.393 210.493 181.86 210C182.326 209.493 182.88 209.1 183.52 208.82C184.173 208.527 184.886 208.38 185.66 208.38C186.446 208.38 187.16 208.527 187.8 208.82C188.44 209.1 188.993 209.493 189.46 210C189.94 210.493 190.306 211.067 190.56 211.72C190.813 212.373 190.94 213.067 190.94 213.8C190.94 214.52 190.813 215.207 190.56 215.86C190.306 216.513 189.946 217.093 189.48 217.6C189.013 218.093 188.453 218.487 187.8 218.78C187.16 219.06 186.446 219.2 185.66 219.2ZM182.2 213.82C182.2 214.54 182.353 215.193 182.66 215.78C182.98 216.367 183.4 216.833 183.92 217.18C184.44 217.513 185.02 217.68 185.66 217.68C186.3 217.68 186.88 217.507 187.4 217.16C187.933 216.813 188.353 216.347 188.66 215.76C188.98 215.16 189.14 214.5 189.14 213.78C189.14 213.06 188.98 212.407 188.66 211.82C188.353 211.233 187.933 210.767 187.4 210.42C186.88 210.073 186.3 209.9 185.66 209.9C185.02 209.9 184.44 210.08 183.92 210.44C183.4 210.787 182.98 211.253 182.66 211.84C182.353 212.427 182.2 213.087 182.2 213.82Z" fill="white"/>
<rect y="260" width="32" height="32" fill="#3F51B5"/>
<path d="M48.78 275.8C48.78 274.933 48.9267 274.087 49.22 273.26C49.5267 272.42 49.9667 271.66 50.54 270.98C51.1267 270.287 51.84 269.74 52.68 269.34C53.52 268.927 54.4733 268.72 55.54 268.72C56.8067 268.72 57.8933 269.013 58.8 269.6C59.7067 270.173 60.38 270.913 60.82 271.82L59.4 272.74C59.12 272.14 58.76 271.667 58.32 271.32C57.8933 270.96 57.4267 270.707 56.92 270.56C56.4267 270.413 55.94 270.34 55.46 270.34C54.6733 270.34 53.9733 270.5 53.36 270.82C52.76 271.14 52.2533 271.567 51.84 272.1C51.4267 272.633 51.1133 273.233 50.9 273.9C50.7 274.553 50.6 275.213 50.6 275.88C50.6 276.613 50.72 277.32 50.96 278C51.2133 278.68 51.56 279.28 52 279.8C52.44 280.32 52.96 280.733 53.56 281.04C54.16 281.347 54.8133 281.5 55.52 281.5C56.0133 281.5 56.52 281.413 57.04 281.24C57.56 281.067 58.0467 280.8 58.5 280.44C58.9533 280.067 59.3133 279.587 59.58 279L61.08 279.82C60.7867 280.527 60.3333 281.127 59.72 281.62C59.1067 282.113 58.42 282.487 57.66 282.74C56.9133 282.993 56.1733 283.12 55.44 283.12C54.4667 283.12 53.5733 282.913 52.76 282.5C51.9467 282.073 51.24 281.513 50.64 280.82C50.0533 280.113 49.5933 279.327 49.26 278.46C48.94 277.58 48.78 276.693 48.78 275.8ZM62.2328 279.98C62.2328 279.313 62.4195 278.74 62.7928 278.26C63.1795 277.767 63.7061 277.387 64.3728 277.12C65.0395 276.853 65.8128 276.72 66.6928 276.72C67.1595 276.72 67.6528 276.76 68.1728 276.84C68.6928 276.907 69.1528 277.013 69.5528 277.16V276.4C69.5528 275.6 69.3128 274.973 68.8328 274.52C68.3528 274.053 67.6728 273.82 66.7928 273.82C66.2195 273.82 65.6661 273.927 65.1328 274.14C64.6128 274.34 64.0595 274.633 63.4728 275.02L62.8328 273.78C63.5128 273.313 64.1928 272.967 64.8728 272.74C65.5528 272.5 66.2595 272.38 66.9928 272.38C68.3261 272.38 69.3795 272.753 70.1528 273.5C70.9261 274.233 71.3128 275.26 71.3128 276.58V281C71.3128 281.213 71.3528 281.373 71.4328 281.48C71.5261 281.573 71.6728 281.627 71.8728 281.64V283C71.6995 283.027 71.5461 283.047 71.4128 283.06C71.2928 283.073 71.1928 283.08 71.1128 283.08C70.6995 283.08 70.3861 282.967 70.1728 282.74C69.9728 282.513 69.8595 282.273 69.8328 282.02L69.7928 281.36C69.3395 281.947 68.7461 282.4 68.0128 282.72C67.2795 283.04 66.5528 283.2 65.8328 283.2C65.1395 283.2 64.5195 283.06 63.9728 282.78C63.4261 282.487 62.9995 282.1 62.6928 281.62C62.3861 281.127 62.2328 280.58 62.2328 279.98ZM69.0328 280.72C69.1928 280.533 69.3195 280.347 69.4128 280.16C69.5061 279.96 69.5528 279.793 69.5528 279.66V278.36C69.1395 278.2 68.7061 278.08 68.2528 278C67.7995 277.907 67.3528 277.86 66.9128 277.86C66.0195 277.86 65.2928 278.04 64.7328 278.4C64.1861 278.747 63.9128 279.227 63.9128 279.84C63.9128 280.173 63.9995 280.5 64.1728 280.82C64.3595 281.127 64.6261 281.38 64.9728 281.58C65.3328 281.78 65.7728 281.88 66.2928 281.88C66.8395 281.88 67.3595 281.773 67.8528 281.56C68.3461 281.333 68.7395 281.053 69.0328 280.72ZM73.447 277.8C73.447 276.813 73.647 275.913 74.047 275.1C74.4604 274.273 75.0204 273.613 75.727 273.12C76.447 272.627 77.267 272.38 78.187 272.38C79.027 272.38 79.7804 272.6 80.447 273.04C81.1137 273.48 81.6337 274.013 82.007 274.64V268.4H83.767V281C83.767 281.213 83.807 281.373 83.887 281.48C83.9804 281.573 84.127 281.627 84.327 281.64V283C83.9937 283.053 83.7337 283.08 83.547 283.08C83.2004 283.08 82.8937 282.96 82.627 282.72C82.3737 282.48 82.247 282.213 82.247 281.92V281.04C81.8337 281.707 81.2804 282.233 80.587 282.62C79.8937 283.007 79.1737 283.2 78.427 283.2C77.707 283.2 77.0404 283.06 76.427 282.78C75.827 282.487 75.3004 282.087 74.847 281.58C74.407 281.073 74.0604 280.5 73.807 279.86C73.567 279.207 73.447 278.52 73.447 277.8ZM82.007 279.34V276.34C81.847 275.887 81.587 275.48 81.227 275.12C80.867 274.747 80.4604 274.453 80.007 274.24C79.567 274.013 79.127 273.9 78.687 273.9C78.167 273.9 77.6937 274.013 77.267 274.24C76.8537 274.453 76.4937 274.747 76.187 275.12C75.8937 275.48 75.667 275.893 75.507 276.36C75.347 276.827 75.267 277.313 75.267 277.82C75.267 278.34 75.3537 278.833 75.527 279.3C75.7137 279.767 75.967 280.18 76.287 280.54C76.6204 280.9 77.0004 281.18 77.427 281.38C77.867 281.58 78.3404 281.68 78.847 281.68C79.167 281.68 79.4937 281.62 79.827 281.5C80.1737 281.38 80.5004 281.213 80.807 281C81.1137 280.787 81.3737 280.54 81.587 280.26C81.8004 279.967 81.9404 279.66 82.007 279.34ZM91.3252 283.2C90.5385 283.2 89.8185 283.06 89.1652 282.78C88.5252 282.487 87.9652 282.093 87.4852 281.6C87.0185 281.093 86.6518 280.513 86.3852 279.86C86.1318 279.207 86.0052 278.513 86.0052 277.78C86.0052 276.793 86.2318 275.893 86.6852 275.08C87.1385 274.267 87.7652 273.613 88.5652 273.12C89.3785 272.627 90.3052 272.38 91.3452 272.38C92.3985 272.38 93.3118 272.633 94.0852 273.14C94.8718 273.633 95.4785 274.287 95.9052 275.1C96.3452 275.9 96.5652 276.767 96.5652 277.7C96.5652 277.833 96.5585 277.967 96.5452 278.1C96.5452 278.22 96.5385 278.313 96.5252 278.38H87.8652C87.9185 279.06 88.1052 279.667 88.4252 280.2C88.7585 280.72 89.1852 281.133 89.7052 281.44C90.2252 281.733 90.7852 281.88 91.3852 281.88C92.0252 281.88 92.6252 281.72 93.1852 281.4C93.7585 281.08 94.1518 280.66 94.3652 280.14L95.8852 280.56C95.6585 281.067 95.3185 281.52 94.8652 281.92C94.4252 282.32 93.8985 282.633 93.2852 282.86C92.6852 283.087 92.0318 283.2 91.3252 283.2ZM87.8052 277.16H94.9252C94.8718 276.48 94.6785 275.88 94.3452 275.36C94.0118 274.84 93.5852 274.433 93.0652 274.14C92.5452 273.847 91.9718 273.7 91.3452 273.7C90.7318 273.7 90.1652 273.847 89.6452 274.14C89.1252 274.433 88.6985 274.84 88.3652 275.36C88.0452 275.88 87.8585 276.48 87.8052 277.16ZM98.5216 283V272.56H100.282V283H98.5216ZM98.5216 270.6V268.4H100.282V270.6H98.5216ZM108.651 274.1C107.771 274.113 106.991 274.34 106.311 274.78C105.644 275.207 105.171 275.8 104.891 276.56V283H103.131V272.56H104.771V274.98C105.131 274.26 105.604 273.68 106.191 273.24C106.791 272.787 107.418 272.533 108.071 272.48C108.204 272.48 108.318 272.48 108.411 272.48C108.504 272.48 108.584 272.487 108.651 272.5V274.1ZM109.577 279.98C109.577 279.313 109.763 278.74 110.137 278.26C110.523 277.767 111.05 277.387 111.717 277.12C112.383 276.853 113.157 276.72 114.037 276.72C114.503 276.72 114.997 276.76 115.517 276.84C116.037 276.907 116.497 277.013 116.897 277.16V276.4C116.897 275.6 116.657 274.973 116.177 274.52C115.697 274.053 115.017 273.82 114.137 273.82C113.563 273.82 113.01 273.927 112.477 274.14C111.957 274.34 111.403 274.633 110.817 275.02L110.177 273.78C110.857 273.313 111.537 272.967 112.217 272.74C112.897 272.5 113.603 272.38 114.337 272.38C115.67 272.38 116.723 272.753 117.497 273.5C118.27 274.233 118.657 275.26 118.657 276.58V281C118.657 281.213 118.697 281.373 118.777 281.48C118.87 281.573 119.017 281.627 119.217 281.64V283C119.043 283.027 118.89 283.047 118.757 283.06C118.637 283.073 118.537 283.08 118.457 283.08C118.043 283.08 117.73 282.967 117.517 282.74C117.317 282.513 117.203 282.273 117.177 282.02L117.137 281.36C116.683 281.947 116.09 282.4 115.357 282.72C114.623 283.04 113.897 283.2 113.177 283.2C112.483 283.2 111.863 283.06 111.317 282.78C110.77 282.487 110.343 282.1 110.037 281.62C109.73 281.127 109.577 280.58 109.577 279.98ZM116.377 280.72C116.537 280.533 116.663 280.347 116.757 280.16C116.85 279.96 116.897 279.793 116.897 279.66V278.36C116.483 278.2 116.05 278.08 115.597 278C115.143 277.907 114.697 277.86 114.257 277.86C113.363 277.86 112.637 278.04 112.077 278.4C111.53 278.747 111.257 279.227 111.257 279.84C111.257 280.173 111.343 280.5 111.517 280.82C111.703 281.127 111.97 281.38 112.317 281.58C112.677 281.78 113.117 281.88 113.637 281.88C114.183 281.88 114.703 281.773 115.197 281.56C115.69 281.333 116.083 281.053 116.377 280.72ZM125.051 283.2C124.184 283.2 123.371 283.06 122.611 282.78C121.851 282.487 121.197 282.053 120.651 281.48L121.331 280.24C121.931 280.8 122.531 281.2 123.131 281.44C123.731 281.68 124.344 281.8 124.971 281.8C125.691 281.8 126.277 281.667 126.731 281.4C127.184 281.12 127.411 280.713 127.411 280.18C127.411 279.793 127.291 279.507 127.051 279.32C126.824 279.133 126.497 278.98 126.071 278.86C125.644 278.727 125.137 278.58 124.551 278.42C123.831 278.207 123.224 277.98 122.731 277.74C122.237 277.5 121.864 277.2 121.611 276.84C121.357 276.48 121.231 276.027 121.231 275.48C121.231 274.813 121.404 274.253 121.751 273.8C122.097 273.333 122.571 272.98 123.171 272.74C123.784 272.5 124.477 272.38 125.251 272.38C126.024 272.38 126.724 272.5 127.351 272.74C127.977 272.98 128.517 273.333 128.971 273.8L128.171 275.02C127.757 274.593 127.304 274.28 126.811 274.08C126.317 273.867 125.764 273.76 125.151 273.76C124.791 273.76 124.437 273.807 124.091 273.9C123.744 273.98 123.457 274.133 123.231 274.36C123.004 274.573 122.891 274.88 122.891 275.28C122.891 275.613 122.977 275.88 123.151 276.08C123.337 276.267 123.604 276.427 123.951 276.56C124.311 276.693 124.744 276.84 125.251 277C126.037 277.227 126.717 277.453 127.291 277.68C127.877 277.907 128.331 278.2 128.651 278.56C128.971 278.92 129.131 279.42 129.131 280.06C129.131 281.047 128.757 281.82 128.011 282.38C127.264 282.927 126.277 283.2 125.051 283.2ZM139.875 283.2C139.008 283.2 138.195 283.06 137.435 282.78C136.675 282.487 136.022 282.053 135.475 281.48L136.155 280.24C136.755 280.8 137.355 281.2 137.955 281.44C138.555 281.68 139.168 281.8 139.795 281.8C140.515 281.8 141.102 281.667 141.555 281.4C142.008 281.12 142.235 280.713 142.235 280.18C142.235 279.793 142.115 279.507 141.875 279.32C141.648 279.133 141.322 278.98 140.895 278.86C140.468 278.727 139.962 278.58 139.375 278.42C138.655 278.207 138.048 277.98 137.555 277.74C137.062 277.5 136.688 277.2 136.435 276.84C136.182 276.48 136.055 276.027 136.055 275.48C136.055 274.813 136.228 274.253 136.575 273.8C136.922 273.333 137.395 272.98 137.995 272.74C138.608 272.5 139.302 272.38 140.075 272.38C140.848 272.38 141.548 272.5 142.175 272.74C142.802 272.98 143.342 273.333 143.795 273.8L142.995 275.02C142.582 274.593 142.128 274.28 141.635 274.08C141.142 273.867 140.588 273.76 139.975 273.76C139.615 273.76 139.262 273.807 138.915 273.9C138.568 273.98 138.282 274.133 138.055 274.36C137.828 274.573 137.715 274.88 137.715 275.28C137.715 275.613 137.802 275.88 137.975 276.08C138.162 276.267 138.428 276.427 138.775 276.56C139.135 276.693 139.568 276.84 140.075 277C140.862 277.227 141.542 277.453 142.115 277.68C142.702 277.907 143.155 278.2 143.475 278.56C143.795 278.92 143.955 279.42 143.955 280.06C143.955 281.047 143.582 281.82 142.835 282.38C142.088 282.927 141.102 283.2 139.875 283.2ZM145.961 278.82V272.56H147.721V278.48C147.721 279.547 147.907 280.347 148.281 280.88C148.654 281.413 149.207 281.68 149.941 281.68C150.421 281.68 150.881 281.58 151.321 281.38C151.774 281.167 152.181 280.867 152.541 280.48C152.901 280.093 153.181 279.633 153.381 279.1V272.56H155.141V281C155.141 281.213 155.181 281.373 155.261 281.48C155.354 281.573 155.501 281.627 155.701 281.64V283C155.501 283.027 155.341 283.04 155.221 283.04C155.114 283.053 155.007 283.06 154.901 283.06C154.567 283.06 154.281 282.96 154.041 282.76C153.801 282.547 153.674 282.287 153.661 281.98L153.621 280.76C153.167 281.533 152.554 282.133 151.781 282.56C151.021 282.987 150.187 283.2 149.281 283.2C148.187 283.2 147.361 282.833 146.801 282.1C146.241 281.353 145.961 280.26 145.961 278.82ZM163.692 283.2C162.839 283.2 162.079 282.987 161.412 282.56C160.746 282.133 160.219 281.593 159.832 280.94V287.26H158.072V272.56H159.632V274.52C160.046 273.88 160.586 273.367 161.252 272.98C161.919 272.58 162.646 272.38 163.432 272.38C164.152 272.38 164.812 272.527 165.412 272.82C166.012 273.113 166.532 273.513 166.972 274.02C167.412 274.527 167.752 275.107 167.992 275.76C168.246 276.4 168.372 277.073 168.372 277.78C168.372 278.767 168.172 279.673 167.772 280.5C167.386 281.327 166.839 281.987 166.132 282.48C165.426 282.96 164.612 283.2 163.692 283.2ZM163.152 281.68C163.672 281.68 164.139 281.573 164.552 281.36C164.979 281.133 165.339 280.84 165.632 280.48C165.939 280.107 166.172 279.687 166.332 279.22C166.492 278.753 166.572 278.273 166.572 277.78C166.572 277.26 166.479 276.767 166.292 276.3C166.119 275.833 165.866 275.42 165.532 275.06C165.212 274.7 164.832 274.42 164.392 274.22C163.966 274.007 163.499 273.9 162.992 273.9C162.672 273.9 162.339 273.96 161.992 274.08C161.659 274.2 161.339 274.373 161.032 274.6C160.726 274.813 160.466 275.06 160.252 275.34C160.039 275.62 159.899 275.92 159.832 276.24V279.22C160.032 279.673 160.299 280.087 160.632 280.46C160.966 280.833 161.352 281.133 161.792 281.36C162.232 281.573 162.686 281.68 163.152 281.68ZM175.153 283.2C174.367 283.2 173.647 283.06 172.993 282.78C172.353 282.487 171.793 282.093 171.313 281.6C170.847 281.093 170.48 280.513 170.213 279.86C169.96 279.207 169.833 278.513 169.833 277.78C169.833 276.793 170.06 275.893 170.513 275.08C170.967 274.267 171.593 273.613 172.393 273.12C173.207 272.627 174.133 272.38 175.173 272.38C176.227 272.38 177.14 272.633 177.913 273.14C178.7 273.633 179.307 274.287 179.733 275.1C180.173 275.9 180.393 276.767 180.393 277.7C180.393 277.833 180.387 277.967 180.373 278.1C180.373 278.22 180.367 278.313 180.353 278.38H171.693C171.747 279.06 171.933 279.667 172.253 280.2C172.587 280.72 173.013 281.133 173.533 281.44C174.053 281.733 174.613 281.88 175.213 281.88C175.853 281.88 176.453 281.72 177.013 281.4C177.587 281.08 177.98 280.66 178.193 280.14L179.713 280.56C179.487 281.067 179.147 281.52 178.693 281.92C178.253 282.32 177.727 282.633 177.113 282.86C176.513 283.087 175.86 283.2 175.153 283.2ZM171.633 277.16H178.753C178.7 276.48 178.507 275.88 178.173 275.36C177.84 274.84 177.413 274.433 176.893 274.14C176.373 273.847 175.8 273.7 175.173 273.7C174.56 273.7 173.993 273.847 173.473 274.14C172.953 274.433 172.527 274.84 172.193 275.36C171.873 275.88 171.687 276.48 171.633 277.16ZM187.87 274.1C186.99 274.113 186.21 274.34 185.53 274.78C184.863 275.207 184.39 275.8 184.11 276.56V283H182.35V272.56H183.99V274.98C184.35 274.26 184.823 273.68 185.41 273.24C186.01 272.787 186.636 272.533 187.29 272.48C187.423 272.48 187.536 272.48 187.63 272.48C187.723 272.48 187.803 272.487 187.87 272.5V274.1ZM189.615 283V272.56H191.375V283H189.615ZM189.615 270.6V268.4H191.375V270.6H189.615ZM198.785 283.2C197.998 283.2 197.285 283.06 196.645 282.78C196.005 282.487 195.451 282.093 194.985 281.6C194.518 281.093 194.158 280.513 193.905 279.86C193.651 279.207 193.525 278.52 193.525 277.8C193.525 277.067 193.651 276.373 193.905 275.72C194.158 275.067 194.518 274.493 194.985 274C195.451 273.493 196.005 273.1 196.645 272.82C197.298 272.527 198.011 272.38 198.785 272.38C199.571 272.38 200.285 272.527 200.925 272.82C201.565 273.1 202.118 273.493 202.585 274C203.065 274.493 203.431 275.067 203.685 275.72C203.938 276.373 204.065 277.067 204.065 277.8C204.065 278.52 203.938 279.207 203.685 279.86C203.431 280.513 203.071 281.093 202.605 281.6C202.138 282.093 201.578 282.487 200.925 282.78C200.285 283.06 199.571 283.2 198.785 283.2ZM195.325 277.82C195.325 278.54 195.478 279.193 195.785 279.78C196.105 280.367 196.525 280.833 197.045 281.18C197.565 281.513 198.145 281.68 198.785 281.68C199.425 281.68 200.005 281.507 200.525 281.16C201.058 280.813 201.478 280.347 201.785 279.76C202.105 279.16 202.265 278.5 202.265 277.78C202.265 277.06 202.105 276.407 201.785 275.82C201.478 275.233 201.058 274.767 200.525 274.42C200.005 274.073 199.425 273.9 198.785 273.9C198.145 273.9 197.565 274.08 197.045 274.44C196.525 274.787 196.105 275.253 195.785 275.84C195.478 276.427 195.325 277.087 195.325 277.82ZM211.717 274.1C210.837 274.113 210.057 274.34 209.377 274.78C208.711 275.207 208.237 275.8 207.957 276.56V283H206.197V272.56H207.837V274.98C208.197 274.26 208.671 273.68 209.257 273.24C209.857 272.787 210.484 272.533 211.137 272.48C211.271 272.48 211.384 272.48 211.477 272.48C211.571 272.48 211.651 272.487 211.717 272.5V274.1ZM217.829 283.2C217.042 283.2 216.322 283.06 215.669 282.78C215.029 282.487 214.469 282.093 213.989 281.6C213.522 281.093 213.156 280.513 212.889 279.86C212.636 279.207 212.509 278.513 212.509 277.78C212.509 276.793 212.736 275.893 213.189 275.08C213.642 274.267 214.269 273.613 215.069 273.12C215.882 272.627 216.809 272.38 217.849 272.38C218.902 272.38 219.816 272.633 220.589 273.14C221.376 273.633 221.982 274.287 222.409 275.1C222.849 275.9 223.069 276.767 223.069 277.7C223.069 277.833 223.062 277.967 223.049 278.1C223.049 278.22 223.042 278.313 223.029 278.38H214.369C214.422 279.06 214.609 279.667 214.929 280.2C215.262 280.72 215.689 281.133 216.209 281.44C216.729 281.733 217.289 281.88 217.889 281.88C218.529 281.88 219.129 281.72 219.689 281.4C220.262 281.08 220.656 280.66 220.869 280.14L222.389 280.56C222.162 281.067 221.822 281.52 221.369 281.92C220.929 282.32 220.402 282.633 219.789 282.86C219.189 283.087 218.536 283.2 217.829 283.2ZM214.309 277.16H221.429C221.376 276.48 221.182 275.88 220.849 275.36C220.516 274.84 220.089 274.433 219.569 274.14C219.049 273.847 218.476 273.7 217.849 273.7C217.236 273.7 216.669 273.847 216.149 274.14C215.629 274.433 215.202 274.84 214.869 275.36C214.549 275.88 214.362 276.48 214.309 277.16ZM228.605 283.2C227.739 283.2 226.925 283.06 226.165 282.78C225.405 282.487 224.752 282.053 224.205 281.48L224.885 280.24C225.485 280.8 226.085 281.2 226.685 281.44C227.285 281.68 227.899 281.8 228.525 281.8C229.245 281.8 229.832 281.667 230.285 281.4C230.739 281.12 230.965 280.713 230.965 280.18C230.965 279.793 230.845 279.507 230.605 279.32C230.379 279.133 230.052 278.98 229.625 278.86C229.199 278.727 228.692 278.58 228.105 278.42C227.385 278.207 226.779 277.98 226.285 277.74C225.792 277.5 225.419 277.2 225.165 276.84C224.912 276.48 224.785 276.027 224.785 275.48C224.785 274.813 224.959 274.253 225.305 273.8C225.652 273.333 226.125 272.98 226.725 272.74C227.339 272.5 228.032 272.38 228.805 272.38C229.579 272.38 230.279 272.5 230.905 272.74C231.532 272.98 232.072 273.333 232.525 273.8L231.725 275.02C231.312 274.593 230.859 274.28 230.365 274.08C229.872 273.867 229.319 273.76 228.705 273.76C228.345 273.76 227.992 273.807 227.645 273.9C227.299 273.98 227.012 274.133 226.785 274.36C226.559 274.573 226.445 274.88 226.445 275.28C226.445 275.613 226.532 275.88 226.705 276.08C226.892 276.267 227.159 276.427 227.505 276.56C227.865 276.693 228.299 276.84 228.805 277C229.592 277.227 230.272 277.453 230.845 277.68C231.432 277.907 231.885 278.2 232.205 278.56C232.525 278.92 232.685 279.42 232.685 280.06C232.685 281.047 232.312 281.82 231.565 282.38C230.819 282.927 229.832 283.2 228.605 283.2Z" fill="white"/>
<rect y="324" width="32" height="32" fill="#0E7DF1"/>
<path d="M49.7 347V332.8H55.78C56.4067 332.8 56.98 332.933 57.5 333.2C58.02 333.453 58.4733 333.8 58.86 334.24C59.2467 334.667 59.5467 335.153 59.76 335.7C59.9733 336.233 60.08 336.78 60.08 337.34C60.08 337.993 59.9533 338.613 59.7 339.2C59.46 339.787 59.1133 340.287 58.66 340.7C58.22 341.113 57.7 341.4 57.1 341.56L60.54 347H58.5L55.26 341.9H51.5V347H49.7ZM51.5 340.3H55.8C56.2933 340.3 56.72 340.167 57.08 339.9C57.4533 339.62 57.74 339.253 57.94 338.8C58.1533 338.347 58.26 337.86 58.26 337.34C58.26 336.807 58.14 336.32 57.9 335.88C57.66 335.427 57.3467 335.067 56.96 334.8C56.5733 334.533 56.1467 334.4 55.68 334.4H51.5V340.3ZM61.5883 343.98C61.5883 343.313 61.7749 342.74 62.1483 342.26C62.5349 341.767 63.0616 341.387 63.7283 341.12C64.3949 340.853 65.1683 340.72 66.0483 340.72C66.5149 340.72 67.0083 340.76 67.5283 340.84C68.0483 340.907 68.5083 341.013 68.9083 341.16V340.4C68.9083 339.6 68.6683 338.973 68.1883 338.52C67.7083 338.053 67.0283 337.82 66.1483 337.82C65.5749 337.82 65.0216 337.927 64.4883 338.14C63.9683 338.34 63.4149 338.633 62.8283 339.02L62.1883 337.78C62.8683 337.313 63.5483 336.967 64.2283 336.74C64.9083 336.5 65.6149 336.38 66.3483 336.38C67.6816 336.38 68.7349 336.753 69.5083 337.5C70.2816 338.233 70.6683 339.26 70.6683 340.58V345C70.6683 345.213 70.7083 345.373 70.7883 345.48C70.8816 345.573 71.0283 345.627 71.2283 345.64V347C71.0549 347.027 70.9016 347.047 70.7683 347.06C70.6483 347.073 70.5483 347.08 70.4683 347.08C70.0549 347.08 69.7416 346.967 69.5283 346.74C69.3283 346.513 69.2149 346.273 69.1883 346.02L69.1483 345.36C68.6949 345.947 68.1016 346.4 67.3683 346.72C66.6349 347.04 65.9083 347.2 65.1883 347.2C64.4949 347.2 63.8749 347.06 63.3283 346.78C62.7816 346.487 62.3549 346.1 62.0483 345.62C61.7416 345.127 61.5883 344.58 61.5883 343.98ZM68.3883 344.72C68.5483 344.533 68.6749 344.347 68.7683 344.16C68.8616 343.96 68.9083 343.793 68.9083 343.66V342.36C68.4949 342.2 68.0616 342.08 67.6083 342C67.1549 341.907 66.7083 341.86 66.2683 341.86C65.3749 341.86 64.6483 342.04 64.0883 342.4C63.5416 342.747 63.2683 343.227 63.2683 343.84C63.2683 344.173 63.3549 344.5 63.5283 344.82C63.7149 345.127 63.9816 345.38 64.3283 345.58C64.6883 345.78 65.1283 345.88 65.6483 345.88C66.1949 345.88 66.7149 345.773 67.2083 345.56C67.7016 345.333 68.0949 345.053 68.3883 344.72ZM89.2225 347H87.4625V341.16C87.4625 340.067 87.2825 339.26 86.9225 338.74C86.5758 338.22 86.0558 337.96 85.3625 337.96C84.6558 337.96 84.0158 338.22 83.4425 338.74C82.8692 339.247 82.4625 339.907 82.2225 340.72V347H80.4625V341.16C80.4625 340.053 80.2892 339.247 79.9425 338.74C79.5958 338.22 79.0758 337.96 78.3825 337.96C77.6892 337.96 77.0492 338.213 76.4625 338.72C75.8892 339.213 75.4825 339.873 75.2425 340.7V347H73.4825V336.56H75.0825V338.8C75.5092 338.027 76.0625 337.433 76.7425 337.02C77.4225 336.593 78.1892 336.38 79.0425 336.38C79.9092 336.38 80.6025 336.62 81.1225 337.1C81.6425 337.567 81.9625 338.173 82.0825 338.92C82.5492 338.093 83.1158 337.467 83.7825 337.04C84.4492 336.6 85.2092 336.38 86.0625 336.38C86.6625 336.38 87.1625 336.493 87.5625 336.72C87.9758 336.933 88.3025 337.24 88.5425 337.64C88.7825 338.027 88.9558 338.487 89.0625 339.02C89.1692 339.553 89.2225 340.133 89.2225 340.76V347ZM97.5791 347.2C96.7257 347.2 95.9657 346.987 95.2991 346.56C94.6324 346.133 94.1057 345.593 93.7191 344.94V351.26H91.9591V336.56H93.5191V338.52C93.9324 337.88 94.4724 337.367 95.1391 336.98C95.8057 336.58 96.5324 336.38 97.3191 336.38C98.0391 336.38 98.6991 336.527 99.2991 336.82C99.8991 337.113 100.419 337.513 100.859 338.02C101.299 338.527 101.639 339.107 101.879 339.76C102.132 340.4 102.259 341.073 102.259 341.78C102.259 342.767 102.059 343.673 101.659 344.5C101.272 345.327 100.726 345.987 100.019 346.48C99.3124 346.96 98.4991 347.2 97.5791 347.2ZM97.0391 345.68C97.5591 345.68 98.0257 345.573 98.4391 345.36C98.8657 345.133 99.2257 344.84 99.5191 344.48C99.8257 344.107 100.059 343.687 100.219 343.22C100.379 342.753 100.459 342.273 100.459 341.78C100.459 341.26 100.366 340.767 100.179 340.3C100.006 339.833 99.7524 339.42 99.4191 339.06C99.0991 338.7 98.7191 338.42 98.2791 338.22C97.8524 338.007 97.3857 337.9 96.8791 337.9C96.5591 337.9 96.2257 337.96 95.8791 338.08C95.5457 338.2 95.2257 338.373 94.9191 338.6C94.6124 338.813 94.3524 339.06 94.1391 339.34C93.9257 339.62 93.7857 339.92 93.7191 340.24V343.22C93.9191 343.673 94.1857 344.087 94.5191 344.46C94.8524 344.833 95.2391 345.133 95.6791 345.36C96.1191 345.573 96.5724 345.68 97.0391 345.68ZM103.6 343.98C103.6 343.313 103.787 342.74 104.16 342.26C104.547 341.767 105.073 341.387 105.74 341.12C106.407 340.853 107.18 340.72 108.06 340.72C108.527 340.72 109.02 340.76 109.54 340.84C110.06 340.907 110.52 341.013 110.92 341.16V340.4C110.92 339.6 110.68 338.973 110.2 338.52C109.72 338.053 109.04 337.82 108.16 337.82C107.587 337.82 107.033 337.927 106.5 338.14C105.98 338.34 105.427 338.633 104.84 339.02L104.2 337.78C104.88 337.313 105.56 336.967 106.24 336.74C106.92 336.5 107.627 336.38 108.36 336.38C109.693 336.38 110.747 336.753 111.52 337.5C112.293 338.233 112.68 339.26 112.68 340.58V345C112.68 345.213 112.72 345.373 112.8 345.48C112.893 345.573 113.04 345.627 113.24 345.64V347C113.067 347.027 112.913 347.047 112.78 347.06C112.66 347.073 112.56 347.08 112.48 347.08C112.067 347.08 111.753 346.967 111.54 346.74C111.34 346.513 111.227 346.273 111.2 346.02L111.16 345.36C110.707 345.947 110.113 346.4 109.38 346.72C108.647 347.04 107.92 347.2 107.2 347.2C106.507 347.2 105.887 347.06 105.34 346.78C104.793 346.487 104.367 346.1 104.06 345.62C103.753 345.127 103.6 344.58 103.6 343.98ZM110.4 344.72C110.56 344.533 110.687 344.347 110.78 344.16C110.873 343.96 110.92 343.793 110.92 343.66V342.36C110.507 342.2 110.073 342.08 109.62 342C109.167 341.907 108.72 341.86 108.28 341.86C107.387 341.86 106.66 342.04 106.1 342.4C105.553 342.747 105.28 343.227 105.28 343.84C105.28 344.173 105.367 344.5 105.54 344.82C105.727 345.127 105.993 345.38 106.34 345.58C106.7 345.78 107.14 345.88 107.66 345.88C108.207 345.88 108.727 345.773 109.22 345.56C109.713 345.333 110.107 345.053 110.4 344.72ZM119.074 347.2C118.208 347.2 117.394 347.06 116.634 346.78C115.874 346.487 115.221 346.053 114.674 345.48L115.354 344.24C115.954 344.8 116.554 345.2 117.154 345.44C117.754 345.68 118.368 345.8 118.994 345.8C119.714 345.8 120.301 345.667 120.754 345.4C121.208 345.12 121.434 344.713 121.434 344.18C121.434 343.793 121.314 343.507 121.074 343.32C120.848 343.133 120.521 342.98 120.094 342.86C119.668 342.727 119.161 342.58 118.574 342.42C117.854 342.207 117.248 341.98 116.754 341.74C116.261 341.5 115.888 341.2 115.634 340.84C115.381 340.48 115.254 340.027 115.254 339.48C115.254 338.813 115.428 338.253 115.774 337.8C116.121 337.333 116.594 336.98 117.194 336.74C117.808 336.5 118.501 336.38 119.274 336.38C120.048 336.38 120.748 336.5 121.374 336.74C122.001 336.98 122.541 337.333 122.994 337.8L122.194 339.02C121.781 338.593 121.328 338.28 120.834 338.08C120.341 337.867 119.788 337.76 119.174 337.76C118.814 337.76 118.461 337.807 118.114 337.9C117.768 337.98 117.481 338.133 117.254 338.36C117.028 338.573 116.914 338.88 116.914 339.28C116.914 339.613 117.001 339.88 117.174 340.08C117.361 340.267 117.628 340.427 117.974 340.56C118.334 340.693 118.768 340.84 119.274 341C120.061 341.227 120.741 341.453 121.314 341.68C121.901 341.907 122.354 342.2 122.674 342.56C122.994 342.92 123.154 343.42 123.154 344.06C123.154 345.047 122.781 345.82 122.034 346.38C121.288 346.927 120.301 347.2 119.074 347.2Z" fill="white"/>
</svg>
